<mxfile host="app.diagrams.net" agent="Mozilla/5.0 (Windows NT 10.0; Win64; x64) AppleWebKit/537.36 (KHTML, like Gecko) Chrome/136.0.0.0 Safari/537.36" version="26.2.14">
  <diagram id="wFE0QG_FPsp0jaGvCLVb" name="Page-1">
    <mxGraphModel dx="994" dy="570" grid="0" gridSize="10" guides="1" tooltips="1" connect="1" arrows="1" fold="1" page="1" pageScale="1" pageWidth="850" pageHeight="1100" math="0" shadow="0">
      <root>
        <mxCell id="0" />
        <mxCell id="1" parent="0" />
        <mxCell id="q5Ab7NY18KZd7FLa2eLB-7" value="用户" style="swimlane;whiteSpace=wrap;html=1;" vertex="1" parent="1">
          <mxGeometry x="57" y="84" width="179" height="306" as="geometry">
            <mxRectangle x="98" y="80" width="59" height="26" as="alternateBounds" />
          </mxGeometry>
        </mxCell>
        <mxCell id="q5Ab7NY18KZd7FLa2eLB-36" value="" style="edgeStyle=orthogonalEdgeStyle;rounded=0;orthogonalLoop=1;jettySize=auto;html=1;" edge="1" parent="q5Ab7NY18KZd7FLa2eLB-7" source="q5Ab7NY18KZd7FLa2eLB-16" target="q5Ab7NY18KZd7FLa2eLB-18">
          <mxGeometry relative="1" as="geometry" />
        </mxCell>
        <mxCell id="q5Ab7NY18KZd7FLa2eLB-16" value="输入用户名和密码" style="rounded=1;whiteSpace=wrap;html=1;" vertex="1" parent="q5Ab7NY18KZd7FLa2eLB-7">
          <mxGeometry x="38" y="87" width="58" height="30" as="geometry" />
        </mxCell>
        <mxCell id="q5Ab7NY18KZd7FLa2eLB-18" value="系统接受登录请求" style="rounded=1;whiteSpace=wrap;html=1;" vertex="1" parent="q5Ab7NY18KZd7FLa2eLB-7">
          <mxGeometry x="38" y="147" width="58" height="30" as="geometry" />
        </mxCell>
        <mxCell id="q5Ab7NY18KZd7FLa2eLB-51" value="" style="html=1;verticalAlign=bottom;startArrow=circle;startFill=1;endArrow=open;startSize=6;endSize=8;curved=0;rounded=0;" edge="1" parent="q5Ab7NY18KZd7FLa2eLB-7">
          <mxGeometry x="1" y="-371" width="80" relative="1" as="geometry">
            <mxPoint x="66.5" y="36" as="sourcePoint" />
            <mxPoint x="66.5" y="87" as="targetPoint" />
            <mxPoint x="317" y="367" as="offset" />
          </mxGeometry>
        </mxCell>
        <mxCell id="q5Ab7NY18KZd7FLa2eLB-13" value="登录页面" style="swimlane;whiteSpace=wrap;html=1;" vertex="1" parent="1">
          <mxGeometry x="236" y="84" width="202" height="306" as="geometry" />
        </mxCell>
        <mxCell id="q5Ab7NY18KZd7FLa2eLB-21" value="系统接受登录请求" style="rounded=1;whiteSpace=wrap;html=1;" vertex="1" parent="q5Ab7NY18KZd7FLa2eLB-13">
          <mxGeometry x="27" y="262" width="58" height="30" as="geometry" />
        </mxCell>
        <mxCell id="q5Ab7NY18KZd7FLa2eLB-39" style="edgeStyle=orthogonalEdgeStyle;rounded=0;orthogonalLoop=1;jettySize=auto;html=1;" edge="1" parent="q5Ab7NY18KZd7FLa2eLB-13" source="q5Ab7NY18KZd7FLa2eLB-20" target="q5Ab7NY18KZd7FLa2eLB-21">
          <mxGeometry relative="1" as="geometry" />
        </mxCell>
        <mxCell id="q5Ab7NY18KZd7FLa2eLB-20" value="系统接受登录请求" style="rounded=1;whiteSpace=wrap;html=1;" vertex="1" parent="q5Ab7NY18KZd7FLa2eLB-13">
          <mxGeometry x="89" y="170" width="58" height="30" as="geometry" />
        </mxCell>
        <mxCell id="q5Ab7NY18KZd7FLa2eLB-38" style="edgeStyle=orthogonalEdgeStyle;rounded=0;orthogonalLoop=1;jettySize=auto;html=1;" edge="1" parent="q5Ab7NY18KZd7FLa2eLB-13" source="q5Ab7NY18KZd7FLa2eLB-22" target="q5Ab7NY18KZd7FLa2eLB-20">
          <mxGeometry relative="1" as="geometry" />
        </mxCell>
        <mxCell id="q5Ab7NY18KZd7FLa2eLB-22" value="用户名或密码错误" style="rhombus;whiteSpace=wrap;html=1;" vertex="1" parent="q5Ab7NY18KZd7FLa2eLB-13">
          <mxGeometry x="83" y="36" width="70" height="97" as="geometry" />
        </mxCell>
        <mxCell id="q5Ab7NY18KZd7FLa2eLB-14" value="数据库系统" style="swimlane;whiteSpace=wrap;html=1;" vertex="1" parent="1">
          <mxGeometry x="438" y="84" width="202" height="307" as="geometry" />
        </mxCell>
        <mxCell id="q5Ab7NY18KZd7FLa2eLB-49" value="" style="edgeStyle=orthogonalEdgeStyle;rounded=0;orthogonalLoop=1;jettySize=auto;html=1;" edge="1" parent="q5Ab7NY18KZd7FLa2eLB-14" source="q5Ab7NY18KZd7FLa2eLB-28" target="q5Ab7NY18KZd7FLa2eLB-48">
          <mxGeometry relative="1" as="geometry" />
        </mxCell>
        <mxCell id="q5Ab7NY18KZd7FLa2eLB-28" value="系统接受登录请求" style="rounded=1;whiteSpace=wrap;html=1;" vertex="1" parent="q5Ab7NY18KZd7FLa2eLB-14">
          <mxGeometry x="102" y="149" width="58" height="30" as="geometry" />
        </mxCell>
        <mxCell id="q5Ab7NY18KZd7FLa2eLB-43" value="用户名或密码错误" style="text;strokeColor=none;fillColor=none;align=left;verticalAlign=middle;spacingLeft=4;spacingRight=4;overflow=hidden;points=[[0,0.5],[1,0.5]];portConstraint=eastwest;rotatable=0;whiteSpace=wrap;html=1;" vertex="1" parent="q5Ab7NY18KZd7FLa2eLB-14">
          <mxGeometry x="28" y="49" width="134" height="30" as="geometry" />
        </mxCell>
        <mxCell id="q5Ab7NY18KZd7FLa2eLB-48" value="" style="ellipse;html=1;shape=endState;fillColor=#000000;strokeColor=#ff0000;" vertex="1" parent="q5Ab7NY18KZd7FLa2eLB-14">
          <mxGeometry x="116" y="262" width="30" height="30" as="geometry" />
        </mxCell>
        <mxCell id="q5Ab7NY18KZd7FLa2eLB-37" style="edgeStyle=orthogonalEdgeStyle;rounded=0;orthogonalLoop=1;jettySize=auto;html=1;entryX=0;entryY=0.5;entryDx=0;entryDy=0;" edge="1" parent="1" source="q5Ab7NY18KZd7FLa2eLB-18" target="q5Ab7NY18KZd7FLa2eLB-22">
          <mxGeometry relative="1" as="geometry" />
        </mxCell>
        <mxCell id="q5Ab7NY18KZd7FLa2eLB-40" style="edgeStyle=orthogonalEdgeStyle;rounded=0;orthogonalLoop=1;jettySize=auto;html=1;entryX=0.5;entryY=0;entryDx=0;entryDy=0;" edge="1" parent="1" source="q5Ab7NY18KZd7FLa2eLB-22" target="q5Ab7NY18KZd7FLa2eLB-28">
          <mxGeometry relative="1" as="geometry" />
        </mxCell>
        <mxCell id="q5Ab7NY18KZd7FLa2eLB-50" style="edgeStyle=orthogonalEdgeStyle;rounded=0;orthogonalLoop=1;jettySize=auto;html=1;entryX=0;entryY=0.5;entryDx=0;entryDy=0;" edge="1" parent="1" source="q5Ab7NY18KZd7FLa2eLB-21" target="q5Ab7NY18KZd7FLa2eLB-48">
          <mxGeometry relative="1" as="geometry" />
        </mxCell>
      </root>
    </mxGraphModel>
  </diagram>
</mxfile>
